<?xml version="1.0" encoding="utf-8"?>
<!-- Generator: Adobe Illustrator 24.0.1, SVG Export Plug-In . SVG Version: 6.00 Build 0)  -->
<svg version="1.1" xmlns="http://www.w3.org/2000/svg" xmlns:xlink="http://www.w3.org/1999/xlink" x="0px" y="0px"
	 viewBox="0 0 360 360" style="enable-background:new 0 0 360 360;" xml:space="preserve">
<style type="text/css">
	.st0{display:none;}
	.st1{display:inline;fill:#666666;}
	.st2{display:inline;}
	.st3{fill:#FFFFFF;}
	.st4{fill:#A70E08;}
	.st5{fill:#122277;}
	.st6{display:inline;fill:#A70E08;}
	.st7{display:inline;fill:none;stroke:#A70E08;stroke-width:36;stroke-miterlimit:10;}
	.st8{display:inline;fill:#122277;}
	.st9{display:inline;fill:#1F5013;}
	.st10{display:inline;fill:#C05712;}
	.st11{display:inline;fill:#868080;}
	.st12{fill:none;stroke:#A70E08;stroke-width:36;stroke-miterlimit:10;}
	.st13{fill:#868080;}
	.st14{fill:#1F5013;}
	.st15{fill:none;stroke:#FFFFFF;stroke-width:4;stroke-miterlimit:10;}
	.st16{fill:#C05712;}
</style>
<g id="_x2D_Moderate_background" class="st0">
</g>
<g id="_x2D__x28_Nonstandard_x2C__broken_x29_" class="st0">
	<g id="Gaming_device" class="st2">
	</g>
</g>
<g id="_x2D_Bad_radii" class="st0">
	<g id="Refrigeration" class="st2">
	</g>
	<g id="Airlock">
	</g>
	<g id="Pressurised_area">
	</g>
	<g id="Pressurised_with_Artificial_Gravity">
	</g>
	<g id="Artificial_gravity_absent">
	</g>
	<g id="Cryogenic_vault">
	</g>
	<g id="Bulkhead_door__x28_partial_x29_" class="st2">
		<g id="Central_divider">
		</g>
	</g>
</g>
<g id="_x2D_Color_chips" class="st0">
</g>
<g id="_x2D_Extension" class="st0">
	<g id="Gaming_x2F_recreation" class="st2">
	</g>
	<g id="Cognitohazard">
		<g id="Circles" class="st2">
		</g>
	</g>
</g>
<g id="Refrigeration_1_">
</g>
<g id="Airlock_1_">
</g>
<g id="Pressurised_area_1_">
</g>
<g id="Pressurised_with_artificial_gravity">
</g>
<g id="Artificial_gravity_absent_1_">
</g>
<g id="Cryogenic_vault_1_">
</g>
<g id="Bulkhead_door">
</g>
<g id="Non-pressurised_area_beyond">
</g>
<g id="Pressure_suit_locker">
</g>
<g id="Laser">
</g>
<g id="Astronic_system__x28_electronics_x29_">
</g>
<g id="Hazard_x2F_warning">
</g>
<g id="Area_shielded_from_radiation">
</g>
<g id="Coffee">
</g>
<g id="Galley">
</g>
<g id="No_pressure_x2F_gravity_suit_required">
	<g>
		<g id="White_base_96_">
			<path class="st3" d="M0,36C0,16.2,16.2,0,36,0h288c19.8,0,36,16.2,36,36v288c0,19.8-16.2,36-36,36H36c-19.8,0-36-16.2-36-36V36z"
				/>
		</g>
		<g id="White_base_94_">
			<path d="M18,36c0-9.9,8.1-18,18-18h288c9.9,0,18,8.1,18,18v288c0,9.9-8.1,18-18,18H36c-9.9,0-18-8.1-18-18V36z"/>
		</g>
		<path class="st15" d="M222.98,154.79c0-4.97,2.01-9.47,5.27-12.73"/>
		<path class="st15" d="M131.72,142.06c3.26,3.26,5.27,7.76,5.27,12.73"/>
		<path class="st3" d="M225,177.19v9h9C229.03,186.19,225,182.16,225,177.19z"/>
		<path class="st3" d="M126,186.19h9v-9C135,182.16,130.97,186.19,126,186.19z"/>
		<path class="st3" d="M126,240.15c4.97,0,9,4.03,9,9v-9H126z"/>
		<path class="st3" d="M234,240.15h-9v9C225,244.18,229.03,240.15,234,240.15z"/>
		<path class="st3" d="M135,148.19v20.25c0,0,0,0,0,0h0v8.75h90v-8.75h0c0,0,0,0,0,0v-20.25l50.46-50.46c3.5-3.5,3.5-9.23,0-12.73
			L250,59.55c-3.5-3.5-9.23-3.5-12.73,0l-50.91,50.91c-3.5,3.5-9.23,3.5-12.73,0l-50.91-50.91c-3.5-3.5-9.23-3.5-12.73,0L84.54,85
			c-3.5,3.5-3.5,9.23,0,12.73L135,148.19z"/>
		<circle class="st3" cx="180" cy="258.08" r="45"/>
		<rect x="135" y="123.08" class="st3" width="90" height="135"/>
		<g>
			<path class="st3" d="M279,222.19c0,9.9-8.1,18-18,18H99c-9.9,0-18-8.1-18-18v-18c0-9.9,8.1-18,18-18h162c9.9,0,18,8.1,18,18
				V222.19z"/>
		</g>
		<circle id="Head_15_" class="st4" cx="180" cy="258.08" r="27"/>
	</g>
</g>
<g id="Radiation_hazard">
</g>
<g id="High_radioactivity">
</g>
<g id="Direction__x28_right_x29_">
</g>
<g id="Direction__x28_down_x29_">
</g>
<g id="Direction__x28_up_x29_">
</g>
<g id="Direction__x28_left_x29_">
</g>
<g id="Life_support_system">
</g>
<g id="Bridge">
</g>
<g id="Autodoc">
</g>
<g id="Computer_terminal">
</g>
<g id="Maintenance">
</g>
<g id="Ladderway">
</g>
<g id="Intercom">
</g>
<g id="Storage__x28_organic_x29_">
</g>
<g id="Storage__x28_non-organic_x29_">
</g>
<g id="Exhaust">
</g>
<g id="Photonic_system__x28_fibre_optics_x29_">
</g>
<g id="Artificial_gravity_area_x2C__non-pressurised_x2C__suit_required">
</g>
</svg>
