<?xml version="1.0" encoding="utf-8"?>
<!-- Generator: Adobe Illustrator 24.0.1, SVG Export Plug-In . SVG Version: 6.00 Build 0)  -->
<svg version="1.1" xmlns="http://www.w3.org/2000/svg" xmlns:xlink="http://www.w3.org/1999/xlink" x="0px" y="0px"
	 viewBox="0 0 360 360" style="enable-background:new 0 0 360 360;" xml:space="preserve">
<style type="text/css">
	.st0{display:none;}
	.st1{display:inline;fill:#666666;}
	.st2{display:inline;}
	.st3{fill:#FFFFFF;}
	.st4{fill:#A70E08;}
	.st5{fill:#122277;}
	.st6{display:inline;fill:#A70E08;}
	.st7{display:inline;fill:none;stroke:#A70E08;stroke-width:36;stroke-miterlimit:10;}
	.st8{display:inline;fill:#122277;}
	.st9{display:inline;fill:#1F5013;}
	.st10{display:inline;fill:#C05712;}
	.st11{display:inline;fill:#868080;}
	.st12{fill:none;stroke:#A70E08;stroke-width:36;stroke-miterlimit:10;}
	.st13{fill:#868080;}
	.st14{fill:#1F5013;}
	.st15{fill:none;stroke:#FFFFFF;stroke-width:4;stroke-miterlimit:10;}
	.st16{fill:#C05712;}
</style>
<g id="_x2D_Moderate_background" class="st0">
</g>
<g id="_x2D__x28_Nonstandard_x2C__broken_x29_" class="st0">
	<g id="Gaming_device" class="st2">
	</g>
</g>
<g id="_x2D_Bad_radii" class="st0">
	<g id="Refrigeration" class="st2">
	</g>
	<g id="Airlock">
	</g>
	<g id="Pressurised_area">
	</g>
	<g id="Pressurised_with_Artificial_Gravity">
	</g>
	<g id="Artificial_gravity_absent">
	</g>
	<g id="Cryogenic_vault">
	</g>
	<g id="Bulkhead_door__x28_partial_x29_" class="st2">
		<g id="Central_divider">
		</g>
	</g>
</g>
<g id="_x2D_Color_chips" class="st0">
</g>
<g id="_x2D_Extension" class="st0">
	<g id="Gaming_x2F_recreation" class="st2">
	</g>
	<g id="Cognitohazard">
		<g id="Circles" class="st2">
		</g>
	</g>
</g>
<g id="Refrigeration_1_">
</g>
<g id="Airlock_1_">
</g>
<g id="Pressurised_area_1_">
</g>
<g id="Pressurised_with_artificial_gravity">
</g>
<g id="Artificial_gravity_absent_1_">
</g>
<g id="Cryogenic_vault_1_">
</g>
<g id="Bulkhead_door">
</g>
<g id="Non-pressurised_area_beyond">
</g>
<g id="Pressure_suit_locker">
</g>
<g id="Laser">
</g>
<g id="Astronic_system__x28_electronics_x29_">
</g>
<g id="Hazard_x2F_warning">
</g>
<g id="Area_shielded_from_radiation">
</g>
<g id="Coffee">
</g>
<g id="Galley">
</g>
<g id="No_pressure_x2F_gravity_suit_required">
</g>
<g id="Radiation_hazard">
</g>
<g id="High_radioactivity">
</g>
<g id="Direction__x28_right_x29_">
</g>
<g id="Direction__x28_down_x29_">
</g>
<g id="Direction__x28_up_x29_">
</g>
<g id="Direction__x28_left_x29_">
</g>
<g id="Life_support_system">
	<g>
		<g id="White_base_65_">
			<path class="st3" d="M0,324c0,19.8,16.2,36,36,36h288c19.8,0,36-16.2,36-36V36c0-19.8-16.2-36-36-36H36C16.2,0,0,16.2,0,36V324z"
				/>
		</g>
		<path id="Border_19_" class="st4" d="M324.3,342H35.7c-9.78,0-17.7-7.93-17.7-17.7V35.7C18,25.93,25.93,18,35.7,18H324.3
			c9.78,0,17.7,7.93,17.7,17.7V324.3C342,334.07,334.07,342,324.3,342z M306,67.77c0-7.61-6.17-13.77-13.77-13.77H67.77
			C60.17,54,54,60.17,54,67.77v224.46c0,7.61,6.17,13.77,13.77,13.77h224.46c7.61,0,13.77-6.17,13.77-13.77V67.77z"/>
		<path class="st13" d="M288,171.04H72V80.09c0-4.45,3.61-8.06,8.06-8.06h199.88c4.45,0,8.06,3.61,8.06,8.06V171.04z"/>
		<rect x="90" y="71.92" class="st3" width="180" height="81"/>
		<g>
			<path class="st13" d="M252,126.77c0,4.63-3.79,8.42-8.42,8.42H116.42c-4.63,0-8.42-3.79-8.42-8.42V80.61
				c0-4.63,3.79-8.42,8.42-8.42h127.16c4.63,0,8.42,3.79,8.42,8.42V126.77z"/>
		</g>
		<path class="st13" d="M288,188.94H72v90.94c0,4.45,3.61,8.06,8.06,8.06h199.88c4.45,0,8.06-3.61,8.06-8.06V188.94z"/>
		<rect x="90" y="207.06" class="st3" width="180" height="81"/>
		<g>
			<path class="st13" d="M252,279.39c0,4.63-3.79,8.42-8.42,8.42H116.42c-4.63,0-8.42-3.79-8.42-8.42v-46.16
				c0-4.63,3.79-8.42,8.42-8.42h127.16c4.63,0,8.42,3.79,8.42,8.42V279.39z"/>
		</g>
		<path class="st3" d="M225,117h-90c-4.95,0-9,4.72-9,10.5v105c0,5.78,4.05,10.5,9,10.5h90c4.95,0,9-4.72,9-10.5v-105
			C234,121.72,229.95,117,225,117z"/>
	</g>
</g>
<g id="Bridge">
</g>
<g id="Autodoc">
</g>
<g id="Computer_terminal">
</g>
<g id="Maintenance">
</g>
<g id="Ladderway">
</g>
<g id="Intercom">
</g>
<g id="Storage__x28_organic_x29_">
</g>
<g id="Storage__x28_non-organic_x29_">
</g>
<g id="Exhaust">
</g>
<g id="Photonic_system__x28_fibre_optics_x29_">
</g>
<g id="Artificial_gravity_area_x2C__non-pressurised_x2C__suit_required">
</g>
</svg>
