<?xml version="1.0" encoding="utf-8"?>
<!-- Generator: Adobe Illustrator 24.0.1, SVG Export Plug-In . SVG Version: 6.00 Build 0)  -->
<svg version="1.1" xmlns="http://www.w3.org/2000/svg" xmlns:xlink="http://www.w3.org/1999/xlink" x="0px" y="0px"
	 viewBox="0 0 360 360" style="enable-background:new 0 0 360 360;" xml:space="preserve">
<style type="text/css">
	.st0{display:none;}
	.st1{display:inline;fill:#666666;}
	.st2{display:inline;}
	.st3{fill:#FFFFFF;}
	.st4{fill:#A70E08;}
	.st5{fill:#122277;}
	.st6{display:inline;fill:#A70E08;}
	.st7{display:inline;fill:none;stroke:#A70E08;stroke-width:36;stroke-miterlimit:10;}
	.st8{display:inline;fill:#122277;}
	.st9{display:inline;fill:#1F5013;}
	.st10{display:inline;fill:#C05712;}
	.st11{display:inline;fill:#868080;}
	.st12{fill:none;stroke:#A70E08;stroke-width:36;stroke-miterlimit:10;}
	.st13{fill:#868080;}
	.st14{fill:#1F5013;}
	.st15{fill:none;stroke:#FFFFFF;stroke-width:4;stroke-miterlimit:10;}
	.st16{fill:#C05712;}
</style>
<g id="_x2D_Moderate_background" class="st0">
</g>
<g id="_x2D__x28_Nonstandard_x2C__broken_x29_" class="st0">
	<g id="Gaming_device" class="st2">
	</g>
</g>
<g id="_x2D_Bad_radii" class="st0">
	<g id="Refrigeration" class="st2">
	</g>
	<g id="Airlock">
	</g>
	<g id="Pressurised_area">
	</g>
	<g id="Pressurised_with_Artificial_Gravity">
	</g>
	<g id="Artificial_gravity_absent">
	</g>
	<g id="Cryogenic_vault">
	</g>
	<g id="Bulkhead_door__x28_partial_x29_" class="st2">
		<g id="Central_divider">
		</g>
	</g>
</g>
<g id="_x2D_Color_chips" class="st0">
</g>
<g id="_x2D_Extension" class="st0">
	<g id="Gaming_x2F_recreation" class="st2">
	</g>
	<g id="Cognitohazard">
		<g id="Circles" class="st2">
		</g>
	</g>
</g>
<g id="Refrigeration_1_">
</g>
<g id="Airlock_1_">
</g>
<g id="Pressurised_area_1_">
</g>
<g id="Pressurised_with_artificial_gravity">
</g>
<g id="Artificial_gravity_absent_1_">
</g>
<g id="Cryogenic_vault_1_">
</g>
<g id="Bulkhead_door">
</g>
<g id="Non-pressurised_area_beyond">
</g>
<g id="Pressure_suit_locker">
</g>
<g id="Laser">
</g>
<g id="Astronic_system__x28_electronics_x29_">
</g>
<g id="Hazard_x2F_warning">
</g>
<g id="Area_shielded_from_radiation">
</g>
<g id="Coffee">
</g>
<g id="Galley">
</g>
<g id="No_pressure_x2F_gravity_suit_required">
</g>
<g id="Radiation_hazard">
</g>
<g id="High_radioactivity">
	<g>
		<g id="White_base_6_">
			<path class="st3" d="M0,36C0,16.2,16.2,0,36,0h288c19.8,0,36,16.2,36,36v288c0,19.8-16.2,36-36,36H36c-19.8,0-36-16.2-36-36V36z"
				/>
		</g>
		<g>
			<g>
				<path class="st16" d="M72.64,85.37c-0.4,1.5-0.64,3.07-0.64,4.7v179.87c0,1.63,0.24,3.2,0.64,4.7L167.27,180L72.64,85.37z"/>
				<path class="st16" d="M180,167.27l94.63-94.63c-1.5-0.4-3.07-0.64-4.7-0.64H90.07c-1.63,0-3.2,0.24-4.7,0.64L180,167.27z"/>
				<path class="st16" d="M287.36,274.63c0.4-1.5,0.64-3.07,0.64-4.7V90.07c0-1.63-0.24-3.2-0.64-4.7L192.73,180L287.36,274.63z"/>
				<path class="st16" d="M180,192.73l-94.63,94.63c1.5,0.4,3.07,0.64,4.7,0.64h179.87c1.63,0,3.2-0.24,4.7-0.64L180,192.73z"/>
			</g>
			<g>
				<path d="M274.63,72.64c-1.5-0.4-3.07-0.64-4.7-0.64H90.07c-1.63,0-3.2,0.24-4.7,0.64L180,167.27L274.63,72.64z"/>
				<path class="st0" d="M192.73,180l94.63,94.63c0.4-1.5,0.64-3.07,0.64-4.7V90.07c0-1.63-0.24-3.2-0.64-4.7L192.73,180z"/>
				<path class="st0" d="M167.27,180L72.64,85.37c-0.4,1.5-0.64,3.07-0.64,4.7v179.87c0,1.63,0.24,3.2,0.64,4.7L167.27,180z"/>
				<path d="M85.37,287.36c1.5,0.4,3.07,0.64,4.7,0.64h179.87c1.63,0,3.2-0.24,4.7-0.64L180,192.73L85.37,287.36z"/>
			</g>
			<g>
				<path class="st4" d="M54.05,293.22c-0.02-0.33-0.05-0.66-0.05-0.99V67.77c0-0.34,0.03-0.66,0.05-0.99L18.57,31.3
					C18.21,32.71,18,34.18,18,35.7V324.3c0,1.52,0.21,2.99,0.57,4.4L54.05,293.22z"/>
				<path class="st4" d="M292.23,306H67.77c-0.33,0-0.66-0.03-0.99-0.05L31.3,341.43c1.41,0.36,2.88,0.57,4.4,0.57H324.3
					c1.52,0,2.99-0.21,4.4-0.57l-35.48-35.48C292.89,305.97,292.56,306,292.23,306z"/>
				<path class="st4" d="M67.77,54h224.46c0.33,0,0.66,0.03,0.99,0.05l35.48-35.48c-1.41-0.36-2.88-0.57-4.4-0.57H35.7
					c-1.52,0-2.99,0.21-4.4,0.57l35.48,35.48C67.11,54.03,67.44,54,67.77,54z"/>
				<path class="st4" d="M305.95,66.78c0.02,0.33,0.05,0.66,0.05,0.99v224.46c0,0.33-0.03,0.66-0.05,0.99l35.48,35.48
					c0.36-1.41,0.57-2.88,0.57-4.4V35.7c0-1.52-0.21-2.99-0.57-4.4L305.95,66.78z"/>
			</g>
		</g>
	</g>
</g>
<g id="Direction__x28_right_x29_">
</g>
<g id="Direction__x28_down_x29_">
</g>
<g id="Direction__x28_up_x29_">
</g>
<g id="Direction__x28_left_x29_">
</g>
<g id="Life_support_system">
</g>
<g id="Bridge">
</g>
<g id="Autodoc">
</g>
<g id="Computer_terminal">
</g>
<g id="Maintenance">
</g>
<g id="Ladderway">
</g>
<g id="Intercom">
</g>
<g id="Storage__x28_organic_x29_">
</g>
<g id="Storage__x28_non-organic_x29_">
</g>
<g id="Exhaust">
</g>
<g id="Photonic_system__x28_fibre_optics_x29_">
</g>
<g id="Artificial_gravity_area_x2C__non-pressurised_x2C__suit_required">
</g>
</svg>
