<?xml version="1.0" encoding="utf-8"?>
<!-- Generator: Adobe Illustrator 24.0.1, SVG Export Plug-In . SVG Version: 6.00 Build 0)  -->
<svg version="1.1" xmlns="http://www.w3.org/2000/svg" xmlns:xlink="http://www.w3.org/1999/xlink" x="0px" y="0px"
	 viewBox="0 0 360 360" style="enable-background:new 0 0 360 360;" xml:space="preserve">
<style type="text/css">
	.st0{display:none;}
	.st1{display:inline;fill:#666666;}
	.st2{display:inline;}
	.st3{fill:#FFFFFF;}
	.st4{fill:#A70E08;}
	.st5{fill:#122277;}
	.st6{display:inline;fill:#A70E08;}
	.st7{display:inline;fill:none;stroke:#A70E08;stroke-width:36;stroke-miterlimit:10;}
	.st8{display:inline;fill:#122277;}
	.st9{display:inline;fill:#1F5013;}
	.st10{display:inline;fill:#C05712;}
	.st11{display:inline;fill:#868080;}
	.st12{fill:none;stroke:#A70E08;stroke-width:36;stroke-miterlimit:10;}
	.st13{fill:#868080;}
	.st14{fill:#1F5013;}
	.st15{fill:none;stroke:#FFFFFF;stroke-width:4;stroke-miterlimit:10;}
	.st16{fill:#C05712;}
</style>
<g id="_x2D_Moderate_background" class="st0">
	<rect x="-603" y="-187" class="st1" width="757" height="736"/>
</g>
<g id="_x2D__x28_Nonstandard_x2C__broken_x29_" class="st0">
	<g id="Gaming_device" class="st2">
	</g>
</g>
<g id="_x2D_Bad_radii" class="st0">
	<g id="Refrigeration" class="st2">
	</g>
	<g id="Airlock">
	</g>
	<g id="Pressurised_area">
	</g>
	<g id="Pressurised_with_Artificial_Gravity">
	</g>
	<g id="Artificial_gravity_absent">
	</g>
	<g id="Cryogenic_vault">
	</g>
	<g id="Bulkhead_door__x28_partial_x29_" class="st2">
		<g id="Central_divider">
		</g>
	</g>
</g>
<g id="_x2D_Color_chips" class="st0">
</g>
<g id="_x2D_Extension" class="st0">
	<g id="Gaming_x2F_recreation" class="st2">
	</g>
	<g id="Cognitohazard">
		<g id="Circles" class="st2">
		</g>
	</g>
</g>
<g id="Refrigeration_1_">
</g>
<g id="Airlock_1_">
</g>
<g id="Pressurised_area_1_">
</g>
<g id="Pressurised_with_artificial_gravity">
</g>
<g id="Artificial_gravity_absent_1_">
</g>
<g id="Cryogenic_vault_1_">
</g>
<g id="Bulkhead_door">
</g>
<g id="Non-pressurised_area_beyond">
</g>
<g id="Pressure_suit_locker">
</g>
<g id="Laser">
</g>
<g id="Astronic_system__x28_electronics_x29_">
</g>
<g id="Hazard_x2F_warning">
</g>
<g id="Area_shielded_from_radiation">
</g>
<g id="Coffee">
</g>
<g id="Galley">
</g>
<g id="No_pressure_x2F_gravity_suit_required">
</g>
<g id="Radiation_hazard">
</g>
<g id="High_radioactivity">
</g>
<g id="Direction__x28_right_x29_">
</g>
<g id="Direction__x28_down_x29_">
</g>
<g id="Direction__x28_up_x29_">
</g>
<g id="Direction__x28_left_x29_">
</g>
<g id="Life_support_system">
</g>
<g id="Bridge">
</g>
<g id="Autodoc">
</g>
<g id="Computer_terminal">
</g>
<g id="Maintenance">
</g>
<g id="Ladderway">
</g>
<g id="Intercom">
</g>
<g id="Storage__x28_organic_x29_">
</g>
<g id="Storage__x28_non-organic_x29_">
</g>
<g id="Exhaust">
</g>
<g id="Photonic_system__x28_fibre_optics_x29_">
</g>
<g id="Artificial_gravity_area_x2C__non-pressurised_x2C__suit_required">
	<g>
		<g id="White_base_40_">
			<path class="st3" d="M0,36C0,16.2,16.2,0,36,0h288c19.8,0,36,16.2,36,36v288c0,19.8-16.2,36-36,36H36c-19.8,0-36-16.2-36-36V36z"
				/>
		</g>
		<g>
			<path class="st4" d="M306,270v22.23c0,7.61-6.17,13.77-13.77,13.77H67.77C60.17,306,54,299.83,54,292.23V270H18v54.3
				c0,9.78,7.93,17.7,17.7,17.7H324.3c9.78,0,17.7-7.93,17.7-17.7V270H306z"/>
			<path class="st4" d="M54,252V67.77C54,60.17,60.17,54,67.77,54h224.46c7.61,0,13.77,6.17,13.77,13.77V252h36V35.7
				c0-9.78-7.93-17.7-17.7-17.7H35.7C25.93,18,18,25.93,18,35.7V252H54z"/>
		</g>
		<path d="M324.3,18H35.7C25.93,18,18,25.93,18,35.7V54v198h54v17.93c0,9.79,7.94,17.73,17.73,17.73h180.53
			c9.79,0,17.73-7.94,17.73-17.73V252h54V54V35.7C342,25.93,334.07,18,324.3,18z"/>
		<path class="st3" d="M233.84,126.03H234c-4.97,0-9-4.03-9-9v-8.85c0-24.85-20.15-45-45-45s-45,20.15-45,45v8.85c0,4.97-4.03,9-9,9
			h-0.2c-9.9,0-18,8.1-18,18v53.89c0,9.9,8.1,18,18,18h0.2c4.97,0,9,4.03,9,9v63.12h90v-63.12c0-4.97,4.03-9,9-9h-0.16
			c9.9,0,18-8.1,18-18v-53.89C251.84,134.13,243.74,126.03,233.84,126.03z M180,81.1c14.91,0,27,12.09,27,27
			c0,6.88-2.58,13.16-6.82,17.93h-40.36c-4.24-4.77-6.82-11.05-6.82-17.93C153,93.19,165.09,81.1,180,81.1z"/>
		<circle id="Head_9_" class="st4" cx="180" cy="108.04" r="27"/>
	</g>
</g>
</svg>
