<?xml version="1.0" encoding="utf-8"?>
<!-- Generator: Adobe Illustrator 24.0.1, SVG Export Plug-In . SVG Version: 6.00 Build 0)  -->
<svg version="1.1" xmlns="http://www.w3.org/2000/svg" xmlns:xlink="http://www.w3.org/1999/xlink" x="0px" y="0px"
	 viewBox="0 0 360 360" style="enable-background:new 0 0 360 360;" xml:space="preserve">
<style type="text/css">
	.st0{display:none;}
	.st1{display:inline;fill:#666666;}
	.st2{display:inline;}
	.st3{fill:#FFFFFF;}
	.st4{fill:#A70E08;}
	.st5{fill:#122277;}
	.st6{display:inline;fill:#A70E08;}
	.st7{display:inline;fill:none;stroke:#A70E08;stroke-width:36;stroke-miterlimit:10;}
	.st8{display:inline;fill:#122277;}
	.st9{display:inline;fill:#1F5013;}
	.st10{display:inline;fill:#C05712;}
	.st11{display:inline;fill:#868080;}
	.st12{fill:none;stroke:#A70E08;stroke-width:36;stroke-miterlimit:10;}
	.st13{fill:#868080;}
	.st14{fill:#1F5013;}
	.st15{fill:none;stroke:#FFFFFF;stroke-width:4;stroke-miterlimit:10;}
	.st16{fill:#C05712;}
</style>
<g id="_x2D_Moderate_background" class="st0">
</g>
<g id="_x2D__x28_Nonstandard_x2C__broken_x29_" class="st0">
	<g id="Gaming_device" class="st2">
	</g>
</g>
<g id="_x2D_Bad_radii" class="st0">
	<g id="Refrigeration" class="st2">
	</g>
	<g id="Airlock">
	</g>
	<g id="Pressurised_area">
	</g>
	<g id="Pressurised_with_Artificial_Gravity">
	</g>
	<g id="Artificial_gravity_absent">
	</g>
	<g id="Cryogenic_vault">
	</g>
	<g id="Bulkhead_door__x28_partial_x29_" class="st2">
		<g id="Central_divider">
		</g>
	</g>
</g>
<g id="_x2D_Color_chips" class="st0">
</g>
<g id="_x2D_Extension" class="st0">
	<g id="Gaming_x2F_recreation" class="st2">
	</g>
	<g id="Cognitohazard">
		<g id="Circles" class="st2">
		</g>
	</g>
</g>
<g id="Refrigeration_1_">
</g>
<g id="Airlock_1_">
</g>
<g id="Pressurised_area_1_">
</g>
<g id="Pressurised_with_artificial_gravity">
</g>
<g id="Artificial_gravity_absent_1_">
</g>
<g id="Cryogenic_vault_1_">
</g>
<g id="Bulkhead_door">
</g>
<g id="Non-pressurised_area_beyond">
	<g>
		<g id="White_base_52_">
			<path class="st3" d="M36,360c-19.8,0-36-16.2-36-36V36C0,16.2,16.2,0,36,0h288c19.8,0,36,16.2,36,36v288c0,19.8-16.2,36-36,36H36
				z"/>
		</g>
		<g id="Central_pillar_1_" class="st0">
			<rect x="269.67" y="162" class="st6" width="36.33" height="36"/>
			<rect x="54" y="162" class="st6" width="35.67" height="36"/>
			<rect x="107.67" y="162" class="st6" width="144" height="36"/>
			<path class="st6" d="M288.06,162h18v-18C306.06,153.94,298,162,288.06,162z"/>
			<path class="st6" d="M54,144v18h18C62.06,162,54,153.94,54,144z"/>
			<path class="st6" d="M54,216c0-9.94,8.06-18,18-18H54V216z"/>
			<path class="st6" d="M306.06,216v-18h-18C298,198,306.06,206.06,306.06,216z"/>
		</g>
		<path d="M324.3,18H35.7C25.93,18,18,25.93,18,35.7V54h49.77h4.32C72.04,54.57,72,55.14,72,55.73V89.4v34.88v145.66
			c0,9.79,7.94,17.73,17.73,17.73h180.53c9.79,0,17.73-7.94,17.73-17.73V124.27V89.4V55.73c0-0.58-0.04-1.16-0.09-1.73h4.32H342
			V35.7C342,25.93,334.07,18,324.3,18z"/>
		<g id="Border_8_">
			<rect x="108" y="306" class="st4" width="144" height="36"/>
			<path class="st4" d="M306.12,71.83V292.4c0,7.61-6.15,13.77-13.73,13.77H270v36h54.35c9.75,0,17.65-7.93,17.65-17.7V71.83H306.12
				z"/>
			<path class="st4" d="M89.95,306.17H67.82c-7.61,0-13.77-6.17-13.77-13.77V71.83h-36v252.63c0,9.78,7.93,17.7,17.7,17.7h54.19
				V306.17z"/>
		</g>
	</g>
</g>
<g id="Pressure_suit_locker">
</g>
<g id="Laser">
</g>
<g id="Astronic_system__x28_electronics_x29_">
</g>
<g id="Hazard_x2F_warning">
</g>
<g id="Area_shielded_from_radiation">
</g>
<g id="Coffee">
</g>
<g id="Galley">
</g>
<g id="No_pressure_x2F_gravity_suit_required">
</g>
<g id="Radiation_hazard">
</g>
<g id="High_radioactivity">
</g>
<g id="Direction__x28_right_x29_">
</g>
<g id="Direction__x28_down_x29_">
</g>
<g id="Direction__x28_up_x29_">
</g>
<g id="Direction__x28_left_x29_">
</g>
<g id="Life_support_system">
</g>
<g id="Bridge">
</g>
<g id="Autodoc">
</g>
<g id="Computer_terminal">
</g>
<g id="Maintenance">
</g>
<g id="Ladderway">
</g>
<g id="Intercom">
</g>
<g id="Storage__x28_organic_x29_">
</g>
<g id="Storage__x28_non-organic_x29_">
</g>
<g id="Exhaust">
</g>
<g id="Photonic_system__x28_fibre_optics_x29_">
</g>
<g id="Artificial_gravity_area_x2C__non-pressurised_x2C__suit_required">
</g>
</svg>
