<?xml version="1.0" encoding="utf-8"?>
<!-- Generator: Adobe Illustrator 24.0.1, SVG Export Plug-In . SVG Version: 6.00 Build 0)  -->
<svg version="1.1" xmlns="http://www.w3.org/2000/svg" xmlns:xlink="http://www.w3.org/1999/xlink" x="0px" y="0px"
	 viewBox="0 0 360 360" style="enable-background:new 0 0 360 360;" xml:space="preserve">
<style type="text/css">
	.st0{display:none;}
	.st1{display:inline;fill:#666666;}
	.st2{display:inline;}
	.st3{fill:#FFFFFF;}
	.st4{fill:#A70E08;}
	.st5{fill:#122277;}
	.st6{display:inline;fill:#A70E08;}
	.st7{display:inline;fill:none;stroke:#A70E08;stroke-width:36;stroke-miterlimit:10;}
	.st8{display:inline;fill:#122277;}
	.st9{display:inline;fill:#1F5013;}
	.st10{display:inline;fill:#C05712;}
	.st11{display:inline;fill:#868080;}
	.st12{fill:none;stroke:#A70E08;stroke-width:36;stroke-miterlimit:10;}
	.st13{fill:#868080;}
	.st14{fill:#1F5013;}
	.st15{fill:none;stroke:#FFFFFF;stroke-width:4;stroke-miterlimit:10;}
	.st16{fill:#C05712;}
</style>
<g id="_x2D_Moderate_background" class="st0">
</g>
<g id="_x2D__x28_Nonstandard_x2C__broken_x29_" class="st0">
	<g id="Gaming_device" class="st2">
	</g>
</g>
<g id="_x2D_Bad_radii" class="st0">
	<g id="Refrigeration" class="st2">
	</g>
	<g id="Airlock">
	</g>
	<g id="Pressurised_area">
	</g>
	<g id="Pressurised_with_Artificial_Gravity">
	</g>
	<g id="Artificial_gravity_absent">
	</g>
	<g id="Cryogenic_vault">
	</g>
	<g id="Bulkhead_door__x28_partial_x29_" class="st2">
		<g id="Central_divider">
		</g>
	</g>
</g>
<g id="_x2D_Color_chips" class="st0">
</g>
<g id="_x2D_Extension" class="st0">
	<g id="Gaming_x2F_recreation" class="st2">
	</g>
	<g id="Cognitohazard">
		<g id="Circles" class="st2">
		</g>
	</g>
</g>
<g id="Refrigeration_1_">
</g>
<g id="Airlock_1_">
</g>
<g id="Pressurised_area_1_">
</g>
<g id="Pressurised_with_artificial_gravity">
</g>
<g id="Artificial_gravity_absent_1_">
</g>
<g id="Cryogenic_vault_1_">
</g>
<g id="Bulkhead_door">
</g>
<g id="Non-pressurised_area_beyond">
</g>
<g id="Pressure_suit_locker">
</g>
<g id="Laser">
</g>
<g id="Astronic_system__x28_electronics_x29_">
</g>
<g id="Hazard_x2F_warning">
</g>
<g id="Area_shielded_from_radiation">
</g>
<g id="Coffee">
</g>
<g id="Galley">
	<g>
		<g id="White_base_42_">
			<path class="st3" d="M0,36C0,16.2,16.2,0,36,0h288c19.8,0,36,16.2,36,36v288c0,19.8-16.2,36-36,36H36c-19.8,0-36-16.2-36-36V36z"
				/>
		</g>
		<path id="Border_11_" class="st4" d="M324.3,18H35.7C25.93,18,18,25.93,18,35.7V324.3c0,9.78,7.93,17.7,17.7,17.7H324.3
			c9.78,0,17.7-7.93,17.7-17.7V35.7C342,25.93,334.07,18,324.3,18z M306,292.23c0,7.61-6.17,13.77-13.77,13.77H67.77
			C60.17,306,54,299.83,54,292.23V67.77C54,60.17,60.17,54,67.77,54h224.46c7.61,0,13.77,6.17,13.77,13.77V292.23z"/>
		<path class="st14" d="M269.93,288H90.07C80.09,288,72,279.91,72,269.93V90.07C72,80.09,80.09,72,90.07,72h179.87
			c9.98,0,18.07,8.09,18.07,18.07v179.87C288,279.91,279.91,288,269.93,288z"/>
		<circle class="st3" cx="180" cy="180" r="90"/>
	</g>
</g>
<g id="No_pressure_x2F_gravity_suit_required">
</g>
<g id="Radiation_hazard">
</g>
<g id="High_radioactivity">
</g>
<g id="Direction__x28_right_x29_">
</g>
<g id="Direction__x28_down_x29_">
</g>
<g id="Direction__x28_up_x29_">
</g>
<g id="Direction__x28_left_x29_">
</g>
<g id="Life_support_system">
</g>
<g id="Bridge">
</g>
<g id="Autodoc">
</g>
<g id="Computer_terminal">
</g>
<g id="Maintenance">
</g>
<g id="Ladderway">
</g>
<g id="Intercom">
</g>
<g id="Storage__x28_organic_x29_">
</g>
<g id="Storage__x28_non-organic_x29_">
</g>
<g id="Exhaust">
</g>
<g id="Photonic_system__x28_fibre_optics_x29_">
</g>
<g id="Artificial_gravity_area_x2C__non-pressurised_x2C__suit_required">
</g>
</svg>
